<svg height="511pt" viewBox="0 -17 511.99581 511" width="511pt" xmlns="http://www.w3.org/2000/svg"><g fill="#1081e0"><path d="m267.527344 40.429688c-3.125 0-6.128906-1.714844-7.628906-4.691407l-11.53125-22.863281c-2.121094-4.207031-.433594-9.335938 3.78125-11.460938 4.207031-2.125 9.335937-.433593 11.460937 3.78125l11.527344 22.863282c2.125 4.203125.4375 9.332031-3.777344 11.457031-1.222656.625-2.535156.914063-3.832031.914063zm0 0"/><path d="m303.144531 111.078125c-3.125 0-6.125-1.714844-7.628906-4.695313l-17.808594-35.316406c-2.125-4.207031-.433593-9.335937 3.78125-11.460937 4.207031-2.132813 9.335938-.4375 11.457031 3.777343l17.8125 35.320313c2.125 4.207031.433594 9.335937-3.78125 11.460937-1.230468.625-2.542968.914063-3.832031.914063zm0 0"/><path d="m357.824219 172.867188c-.398438 0-.800781-.027344-1.210938-.085938l-25.34375-3.601562c-2.765625-.390626-5.160156-2.113282-6.417969-4.605469l-11.527343-22.863281c-2.125-4.207032-.425781-9.34375 3.78125-11.460938 4.207031-2.132812 9.335937-.425781 11.460937 3.78125l9.511719 18.886719 20.933594 2.976562c4.667969.664063 7.910156 4.984375 7.246093 9.652344-.597656 4.238281-4.25 7.320313-8.433593 7.320313zm0 0"/><path d="m438.03125 184.277344c-.402344 0-.800781-.027344-1.210938-.085938l-40.097656-5.699218c-4.667968-.667969-7.910156-4.984376-7.246094-9.652344.664063-4.667969 4.957032-7.9375 9.652344-7.253906l40.097656 5.699218c4.667969.667969 7.910157 4.984375 7.242188 9.652344-.605469 4.257812-4.257812 7.339844-8.4375 7.339844zm0 0"/><path d="m484.945312 211.257812c-2.25 0-4.496093-.886718-6.175781-2.644531-3.25-3.40625-3.125-8.816406.28125-12.066406l5.792969-5.527344-7.925781-1.128906c-4.667969-.664063-7.910157-4.984375-7.246094-9.652344.667969-4.664062 4.976563-7.933593 9.652344-7.25l25.34375 3.601563c3.234375.457031 5.921875 2.730468 6.921875 5.84375.996094 3.113281.125 6.527344-2.238282 8.78125l-18.515624 17.671875c-1.65625 1.585937-3.773438 2.371093-5.890626 2.371093zm0 0"/><path d="m427.152344 266.410156c-2.253906 0-4.5-.886718-6.179688-2.644531-3.25-3.40625-3.121094-8.816406.28125-12.066406l28.894532-27.570313c3.414062-3.253906 8.804687-3.125 12.066406.28125 3.257812 3.402344 3.121094 8.8125-.28125 12.066406l-28.894532 27.570313c-1.648437 1.578125-3.773437 2.363281-5.886718 2.363281zm0 0"/><path d="m384.132812 336.871094c-4.070312 0-7.667968-2.921875-8.394531-7.066406l-4.421875-25.214844c-.492187-2.808594.453125-5.675782 2.519532-7.648438l18.515624-17.671875c3.414063-3.25 8.808594-3.132812 12.066407.28125 3.25 3.414063 3.125 8.816407-.28125 12.066407l-15.214844 14.523437 3.625 20.71875c.8125 4.644531-2.292969 9.0625-6.925781 9.875-.496094.09375-.992188.136719-1.488282.136719zm0 0"/><path d="m397.71875 414.394531c-4.070312 0-7.671875-2.917969-8.394531-7.066406l-6.792969-38.757813c-.8125-4.640624 2.292969-9.0625 6.929688-9.871093 4.613281-.855469 9.0625 2.285156 9.878906 6.925781l6.792968 38.761719c.8125 4.640625-2.292968 9.0625-6.929687 9.871093-.492187.09375-.988281.136719-1.484375.136719zm0 0"/><path d="m408.941406 478.371094c-1.332031 0-2.671875-.316406-3.910156-.949219l-22.757812-11.714844c-4.1875-2.160156-5.835938-7.304687-3.675782-11.496093 2.15625-4.1875 7.304688-5.828126 11.492188-3.6875l7.484375 3.859374-1.449219-8.296874c-.8125-4.640626 2.292969-9.0625 6.929688-9.871094 4.625-.820313 9.0625 2.285156 9.878906 6.929687l4.421875 25.214844c.554687 3.191406-.742188 6.425781-3.347657 8.347656-1.507812 1.097657-3.285156 1.664063-5.066406 1.664063zm0 0"/><path d="m350.367188 448.230469c-1.3125 0-2.652344-.308594-3.898438-.949219l-35.804688-18.429688c-4.191406-2.160156-5.839843-7.304687-3.6875-11.496093 2.160157-4.199219 7.304688-5.835938 11.492188-3.6875l35.808594 18.433593c4.1875 2.160157 5.835937 7.304688 3.683594 11.496094-1.515626 2.941406-4.503907 4.632813-7.59375 4.632813zm0 0"/><path d="m278.757812 411.375c-1.316406 0-2.648437-.308594-3.902343-.949219l-22.757813-11.714843c-4.1875-2.152344-5.835937-7.296876-3.6875-11.496094 2.152344-4.1875 7.296875-5.851563 11.496094-3.683594l22.757812 11.714844c4.191407 2.148437 5.835938 7.296875 3.6875 11.496094-1.519531 2.941406-4.507812 4.632812-7.59375 4.632812zm0 0"/></g><path d="m103.054688 478.371094c-1.78125 0-3.566407-.566406-5.058594-1.664063-2.613282-1.921875-3.910156-5.15625-3.347656-8.347656l28.425781-162.226563-120.429688-114.910156c-2.363281-2.261718-3.234375-5.667968-2.238281-8.78125 1-3.113281 3.6875-5.382812 6.921875-5.84375l166.578125-23.691406 74.460938-147.710938c2.125-4.207031 7.253906-5.894531 11.460937-3.78125 4.207031 2.125 5.898437 7.253907 3.78125 11.460938l-76.46875 151.6875c-1.253906 2.492188-3.652344 4.21875-6.414063 4.609375l-153.585937 21.847656 111.011719 105.921875c2.066406 1.972656 3.003906 4.839844 2.515625 7.648438l-26.238281 149.800781 137.667968-70.851563c4.183594-2.152343 9.335938-.503906 11.496094 3.6875 2.15625 4.1875.511719 9.332032-3.6875 11.492188l-152.941406 78.710938c-1.238282.632812-2.570313.941406-3.910156.941406zm0 0" fill="#c6e2f7"/></svg>